 <svg  version="1.0" xmlns="http://www.w3.org/2000/svg"  width="156.000000pt" height="134.000000pt" viewBox="0 0 156.000000 134.000000"  preserveAspectRatio="xMidYMid meet">  <g transform="translate(0.000000,134.000000) scale(0.100000,-0.100000)" fill="#ffffff" stroke="none"> <path d="M17 1318 c6 -7 110 -142 232 -301 l221 -287 0 -360 0 -360 70 0 70 0 0 358 0 358 72 99 c155 216 238 334 238 338 0 3 -8 4 -17 2 -10 -2 -48 -4 -85 -4 l-67 -1 -103 -145 c-56 -80 -106 -145 -109 -145 -6 0 -59 68 -232 296 -16 21 -17 25 -3 30 8 3 172 4 363 2 296 -4 356 -7 403 -22 105 -34 186 -91 253 -179 70 -93 97 -181 97 -322 0 -165 -37 -267 -134 -373 -99 -106 -216 -152 -388 -152 l-108 0 -2 375 -3 376 -67 -95 -68 -95 0 -350 0 -351 173 0 c200 0 275 13 380 64 163 79 286 226 333 396 21 79 29 242 15 329 -39 250 -231 459 -474 516 -85 20 -1075 22 -1060 3z"/> <path d="M0 1163 l0 -111 108 -139 c59 -77 154 -201 212 -276 l105 -136 3 109 3 109 -50 63 c-27 35 -123 157 -211 273 -89 116 -164 212 -166 214 -2 2 -4 -45 -4 -106z"/> </g> </svg> 